<svg width="43" height="43" viewBox="0 0 43 43" fill="none" xmlns="http://www.w3.org/2000/svg">
<path fill-rule="evenodd" clip-rule="evenodd" d="M0 28.84V42.7H13.86C17.23 42.7 19.96 39.97 19.96 36.6V22.74H6.1C2.73 22.74 0 25.47 0 28.84Z" fill="#6B98BF"/>
<path fill-rule="evenodd" clip-rule="evenodd" d="M13.85 0H0V13.85C0 17.23 2.74 19.96 6.11 19.96H19.96V6.11C19.96 2.74 17.23 0 13.85 0Z" fill="#6B98BF"/>
<path fill-rule="evenodd" clip-rule="evenodd" d="M36.2599 22.56H22.45V36.37C22.45 39.77 25.21 42.53 28.61 42.53H42.4199V28.72C42.4199 25.32 39.6599 22.56 36.2599 22.56Z" fill="#6B98BF"/>
<path d="M32.7 19.96C38.2118 19.96 42.68 15.4918 42.68 9.98C42.68 4.4682 38.2118 0 32.7 0C27.1882 0 22.72 4.4682 22.72 9.98C22.72 15.4918 27.1882 19.96 32.7 19.96Z" fill="#D4D947"/>
</svg>
