<svg width="201" height="38" viewBox="0 0 201 38" fill="none" xmlns="http://www.w3.org/2000/svg">
<g clip-path="url(#clip0_75_223)">
<path d="M51.1946 0C52.8415 0 53.6022 0.0586808 54.7559 0.368851C55.9095 0.670638 56.5783 1.19876 57.3139 1.75204C58.0412 2.30532 58.5762 2.98434 58.9106 3.78072C59.245 4.5771 59.4122 5.4657 59.4122 6.45489C59.4122 6.9914 59.337 7.50276 59.1865 8.00574C59.036 8.50033 58.7936 8.96978 58.4676 9.39731C58.1415 9.83322 57.7235 10.2272 57.2053 10.5877C56.6953 10.9482 56.0767 11.2583 55.3578 11.5182C56.9294 11.9038 58.083 12.5158 58.8354 13.3708C59.5878 14.2259 59.9639 15.3241 59.9639 16.6821C59.9639 17.6964 59.7717 18.6437 59.3788 19.5156C58.9859 20.3874 58.409 21.1502 57.6567 21.8041C56.8959 22.4496 56.2355 23.0532 55.1237 23.422C54.0119 23.7909 53.3765 23.8831 51.9554 23.8831H43.3533V0H51.203H51.1946ZM47.9595 4.14119V10.0428H50.8352C51.4454 10.0428 51.9972 10.0009 52.482 9.90867C52.9669 9.81646 53.3849 9.66556 53.7276 9.44761C54.0704 9.22965 54.3295 8.92786 54.5134 8.55063C54.6973 8.16501 54.7809 7.68718 54.7809 7.10876C54.7809 6.53033 54.7057 6.06927 54.572 5.69204C54.4382 5.3148 54.2125 5.01302 53.9199 4.78668C53.6273 4.56034 53.2511 4.39268 52.7997 4.29208C52.3483 4.19148 51.8133 4.14119 51.1946 4.14119H47.9595ZM51.8467 19.6916C52.574 19.6916 53.1675 19.5994 53.6357 19.415C54.1038 19.2305 54.4633 18.9874 54.7224 18.694C54.9816 18.4006 55.1655 18.0653 55.2658 17.6964C55.3661 17.3276 55.4163 16.9504 55.4163 16.5647C55.4163 16.1288 55.3578 15.7348 55.2491 15.3827C55.132 15.0307 54.9398 14.7373 54.6639 14.4942C54.388 14.251 54.0202 14.0666 53.5604 13.9409C53.1006 13.8067 52.5238 13.7481 51.83 13.7481H47.9762V19.6916H51.8634H51.8467Z" fill="white"/>
<path d="M66.3173 23.8749H62.4468V7.25146H66.3173V23.8665V23.8749Z" fill="white"/>
<path d="M84.3576 23.8749H80.8465C80.5038 23.8749 80.2196 23.7827 79.9855 23.5983C79.7514 23.4138 79.5341 23.154 79.3334 22.8103L76.5831 17.6212C76.3992 17.2859 76.1985 17.0679 75.9728 16.9589C75.7471 16.85 75.4545 16.7997 75.1118 16.7997H73.3813V23.8749H69.5359V7.25146H73.3813V13.983H74.7941C75.0867 13.983 75.3291 13.9327 75.5381 13.8237C75.7471 13.7147 75.9394 13.5219 76.115 13.2453L79.1161 8.24066C79.2916 7.95563 79.5006 7.71253 79.7514 7.53649C80.0022 7.35206 80.3031 7.25985 80.6626 7.25985H83.9647L79.927 13.7986C79.7347 14.1003 79.509 14.3518 79.2415 14.553C78.974 14.7542 78.6814 14.9135 78.3637 15.0476C78.8736 15.1818 79.3 15.4081 79.6595 15.7266C80.0189 16.0452 80.3449 16.4811 80.6626 17.0344L84.3743 23.8917L84.3576 23.8749Z" fill="white"/>
<path d="M100.341 7.25146V23.8665H96.4707V16.8416H89.7411V23.8665H85.8706V7.25146H89.7411V14.2009H96.4707V7.25146H100.341Z" fill="white"/>
<path d="M118.373 23.8747H115.397C115.063 23.8747 114.795 23.7993 114.586 23.64C114.377 23.4807 114.227 23.2879 114.118 23.0448L113.14 20.1443H106.837L105.859 23.0448C105.775 23.2544 105.625 23.4472 105.407 23.6232C105.19 23.7909 104.922 23.8831 104.605 23.8831H101.604L108.015 7.26807H111.953L118.365 23.8831L118.373 23.8747ZM112.262 17.5204L110.724 12.9685C110.607 12.6835 110.49 12.3398 110.356 11.9458C110.222 11.5518 110.097 11.1326 109.972 10.6716C109.855 11.1326 109.737 11.5685 109.604 11.9625C109.478 12.3565 109.353 12.7002 109.244 12.9853L107.723 17.5121H112.262V17.5204Z" fill="white"/>
<path d="M136.054 19.5742C136.146 19.5742 136.238 19.591 136.33 19.6245C136.422 19.658 136.505 19.7167 136.589 19.8005L138.11 21.4101C137.441 22.2819 136.605 22.9442 135.602 23.3885C134.599 23.8327 133.412 24.0591 132.033 24.0591C130.77 24.0591 129.65 23.8411 128.647 23.4136C127.652 22.9861 126.808 22.3909 126.114 21.6364C125.42 20.8819 124.885 19.985 124.517 18.9455C124.15 17.906 123.957 16.7827 123.957 15.5671C123.957 14.3516 124.158 13.1864 124.559 12.1469C124.96 11.1074 125.529 10.2104 126.256 9.46434C126.983 8.70987 127.853 8.12307 128.873 7.70392C129.884 7.28477 131.004 7.0752 132.225 7.0752C132.844 7.0752 133.429 7.13388 133.981 7.24286C134.532 7.35183 135.042 7.50273 135.519 7.69554C135.995 7.88834 136.438 8.12307 136.84 8.39971C137.241 8.67634 137.6 8.96975 137.91 9.2883L136.614 11.032C136.53 11.1409 136.43 11.2331 136.321 11.3254C136.204 11.4092 136.045 11.4595 135.845 11.4595C135.711 11.4595 135.577 11.426 135.46 11.3673C135.335 11.3086 135.209 11.2331 135.076 11.1409C134.942 11.0571 134.791 10.9565 134.624 10.8559C134.457 10.7553 134.265 10.6547 134.047 10.5709C133.83 10.4871 133.563 10.4116 133.262 10.3446C132.961 10.2859 132.61 10.2523 132.208 10.2523C131.573 10.2523 130.988 10.3697 130.461 10.6044C129.934 10.8391 129.483 11.1829 129.098 11.6355C128.714 12.0882 128.421 12.6415 128.212 13.3037C128.003 13.9576 127.903 14.7121 127.903 15.5588C127.903 16.4054 128.02 17.1683 128.246 17.8305C128.472 18.4928 128.789 19.0461 129.19 19.4988C129.592 19.9514 130.051 20.2951 130.587 20.5299C131.113 20.7646 131.682 20.8819 132.292 20.8819C132.643 20.8819 132.961 20.8652 133.245 20.8316C133.529 20.7981 133.805 20.7394 134.056 20.664C134.307 20.5802 134.541 20.4796 134.758 20.3454C134.975 20.2113 135.201 20.0436 135.427 19.8341C135.519 19.7586 135.619 19.6916 135.719 19.6496C135.828 19.5994 135.937 19.5742 136.045 19.5742H136.054Z" fill="white"/>
<path d="M151.703 10.3112H147.038V23.8749H143.193V10.3112H138.528V7.25146H151.695V10.3112H151.703Z" fill="white"/>
<path d="M168.121 7.25146V23.8665H164.251V14.5614C164.251 14.1255 164.267 13.6728 164.293 13.1866C164.318 12.7004 164.368 12.189 164.443 11.6441C164.267 12.1304 164.075 12.583 163.875 12.9938C163.674 13.4046 163.465 13.7734 163.273 14.0836L158.232 22.718C158.148 22.8522 158.048 22.9947 157.931 23.1288C157.814 23.2629 157.68 23.3887 157.538 23.4977C157.396 23.6066 157.237 23.6989 157.07 23.7659C156.903 23.833 156.727 23.8665 156.543 23.8665H153.642V7.25146H157.513V16.5482C157.513 16.9841 157.505 17.4368 157.479 17.923C157.454 18.4092 157.404 18.9206 157.321 19.4655C157.496 18.9876 157.688 18.5433 157.889 18.1242C158.098 17.7134 158.299 17.3446 158.491 17.0344L163.532 8.39993C163.615 8.2658 163.716 8.12329 163.833 7.98917C163.95 7.85504 164.084 7.72929 164.226 7.62032C164.368 7.51134 164.527 7.41912 164.694 7.35206C164.861 7.285 165.037 7.25146 165.212 7.25146H168.113H168.121Z" fill="white"/>
<path d="M185.418 23.8747H181.547V10.1183H177.886C177.768 12.1553 177.61 13.9158 177.409 15.3912C177.2 16.8666 176.958 18.124 176.673 19.1635C176.381 20.1946 176.063 21.0329 175.695 21.67C175.327 22.3071 174.935 22.8017 174.5 23.1622C174.065 23.5226 173.605 23.7574 173.104 23.8747C172.602 23.9921 172.084 24.0592 171.541 24.0592C170.872 24.0592 170.404 24.0005 170.119 23.8831C169.835 23.7658 169.701 23.5897 169.701 23.3634V21.0245H170.654C170.822 21.0245 170.997 21.0078 171.173 20.9826C171.357 20.9491 171.541 20.8736 171.733 20.7395C171.925 20.6138 172.109 20.4209 172.293 20.1695C172.477 19.918 172.661 19.5659 172.828 19.1216C172.995 18.6773 173.162 18.1156 173.313 17.445C173.463 16.7744 173.605 15.9612 173.731 15.0139C173.856 14.0667 173.965 12.9433 174.057 11.6691C174.149 10.3949 174.207 8.92789 174.249 7.26807H185.409V23.8831L185.418 23.8747Z" fill="white"/>
<path d="M194.697 13.9075C195.842 13.9075 196.812 14.0333 197.614 14.2848C198.417 14.5363 199.061 14.8716 199.562 15.2907C200.064 15.7099 200.423 16.2045 200.657 16.7578C200.883 17.3194 201 17.9062 201 18.5182C201 19.3146 200.858 20.0439 200.574 20.7061C200.289 21.3684 199.88 21.93 199.336 22.3911C198.801 22.8606 198.141 23.221 197.355 23.4809C196.569 23.7408 195.683 23.8665 194.697 23.8665H188.628V7.25146H192.473V13.8992H194.705L194.697 13.9075ZM194.697 20.966C195.207 20.966 195.625 20.9073 195.951 20.7983C196.277 20.6894 196.536 20.5301 196.72 20.3373C196.904 20.1445 197.029 19.9265 197.104 19.6834C197.171 19.4403 197.205 19.1888 197.205 18.9206C197.205 18.6188 197.171 18.3337 197.104 18.0739C197.038 17.814 196.912 17.596 196.72 17.4032C196.528 17.2104 196.277 17.0763 195.951 16.9673C195.625 16.8667 195.207 16.8164 194.697 16.8164H192.465V20.966H194.697Z" fill="white"/>
<path d="M62.6809 5.49923C63.7927 4.07412 65.6737 2.15442 68.3906 0.913744C66.8858 1.84425 66.5849 2.27178 65.3727 3.33642C64.7541 3.88131 63.7342 4.9208 62.8899 5.8094C64.0352 5.74233 68.8169 5.13038 69.5191 0C63.9432 0.494595 62.8732 4.35914 62.6809 5.49923Z" fill="white"/>
<path d="M44.9332 31.3857H42.9687C42.7848 31.3857 42.7012 31.3019 42.7012 31.1342C42.7012 31.042 42.7262 30.9582 42.7764 30.8911H47.6167C47.8006 30.8911 47.8842 30.9749 47.8842 31.1426C47.8842 31.2348 47.8591 31.3186 47.8089 31.3857H45.51V36.5161H44.9332V31.3857Z" fill="white"/>
<path d="M64.7623 31.2177C64.7623 31.0333 64.8709 30.9243 65.0883 30.8908C65.197 30.874 65.3307 30.8573 65.4979 30.8489C65.6651 30.8405 65.8323 30.8237 66.0162 30.8237C66.2001 30.8237 66.3673 30.8237 66.5262 30.8237C67.3705 30.8237 68.0225 30.9746 68.4656 31.2848C68.9087 31.595 69.1344 32.0393 69.1344 32.6261C69.1344 33.2129 68.917 33.6823 68.4823 33.9925C68.0476 34.3027 67.4123 34.4619 66.593 34.4619C66.4927 34.4619 66.3506 34.4619 66.1751 34.4452C65.9995 34.4284 65.8323 34.42 65.6651 34.4033C65.4979 34.3865 65.3809 34.3697 65.314 34.353V36.5409H64.7539V31.2345L64.7623 31.2177ZM68.0811 33.632C68.3987 33.4141 68.5576 33.0704 68.5576 32.6093C68.5576 31.7291 67.8721 31.2848 66.4927 31.2848C66.2754 31.2848 66.0497 31.2848 65.8239 31.3016C65.5982 31.3183 65.431 31.3267 65.3224 31.3435V33.8332C65.3976 33.85 65.5146 33.8667 65.6735 33.8835C65.8323 33.9003 65.9995 33.917 66.1751 33.9338C66.3506 33.9506 66.5011 33.9506 66.6265 33.9506C67.2785 33.9506 67.7718 33.8416 68.0811 33.6153V33.632Z" fill="white"/>
<path d="M86.3387 31.2181C86.3387 31.0001 86.4641 30.8911 86.7066 30.8911H90.2093C90.3932 30.8911 90.4768 30.9749 90.4768 31.1426C90.4768 31.2348 90.4517 31.3186 90.4015 31.3857H86.9323V33.3473H90.0755C90.2594 33.3473 90.343 33.4312 90.343 33.5988C90.343 33.691 90.3179 33.7749 90.2678 33.8419H86.9239V36.0131H90.4099V36.5161H86.322V31.2097L86.3387 31.2181Z" fill="white"/>
<path d="M112.329 36.516H111.761V31.5784L108.258 36.516H107.597V31.1844C107.597 30.9832 107.698 30.8826 107.89 30.8826C107.999 30.8826 108.091 30.9078 108.158 30.9497V35.7531L111.46 31.1425C111.526 31.0503 111.61 30.9832 111.685 30.9413C111.761 30.8994 111.852 30.8826 111.936 30.8826C112.036 30.8826 112.12 30.8826 112.187 30.9078C112.254 30.9246 112.304 30.9413 112.321 30.9581V36.516H112.329ZM109.972 29.927C110.481 29.927 110.799 29.7006 110.908 29.2563L111.368 29.3066C111.368 29.5246 111.301 29.7174 111.175 29.8935C111.05 30.0695 110.883 30.2036 110.682 30.3042C110.481 30.4048 110.247 30.4551 109.98 30.4551C109.712 30.4551 109.487 30.4048 109.278 30.3042C109.069 30.2036 108.902 30.0695 108.776 29.8935C108.651 29.7174 108.584 29.5246 108.575 29.3066L109.035 29.2563C109.144 29.709 109.462 29.927 109.988 29.927H109.972Z" fill="white"/>
<path d="M134.373 36.0213H134.557C134.8 36.0213 134.925 36.1303 134.925 36.3483V37.9997H134.357V36.5243H129.851V37.9997H129.282V36.3483C129.282 36.1303 129.408 36.0213 129.65 36.0213H129.884L130.637 32.7687C130.795 32.0813 131.063 31.5867 131.439 31.2766C131.815 30.9664 132.35 30.8071 133.027 30.8071C133.186 30.8071 133.353 30.8071 133.537 30.8239C133.721 30.8407 133.88 30.8574 134.022 30.8826C134.248 30.9161 134.357 31.0251 134.357 31.2095V36.013L134.373 36.0213ZM133.42 31.3017C133.287 31.2933 133.153 31.285 133.027 31.285C132.685 31.285 132.392 31.3353 132.166 31.4359C131.932 31.5364 131.748 31.6957 131.598 31.9304C131.447 32.1652 131.33 32.467 131.238 32.861L130.503 36.0213H133.813V31.3688C133.696 31.3436 133.562 31.3185 133.429 31.3101L133.42 31.3017Z" fill="white"/>
<path d="M156.677 36.5162H156.108V31.5786L152.606 36.5162H151.945V31.1846C151.945 30.9834 152.046 30.8828 152.238 30.8828C152.347 30.8828 152.439 30.908 152.505 30.9499V35.7533L155.807 31.1427C155.874 31.0505 155.958 30.9834 156.033 30.9415C156.108 30.8996 156.2 30.8828 156.284 30.8828C156.384 30.8828 156.468 30.8828 156.535 30.908C156.602 30.9247 156.652 30.9415 156.669 30.9583V36.5162H156.677Z" fill="white"/>
<path d="M178.889 36.5162H178.32V33.8336H174.717V36.5162H174.149V31.1846C174.149 30.9834 174.249 30.8828 174.441 30.8828C174.55 30.8828 174.642 30.908 174.709 30.9499V33.339H178.312V31.1846C178.312 30.9834 178.412 30.8828 178.604 30.8828C178.713 30.8828 178.805 30.908 178.872 30.9499V36.5162H178.889Z" fill="white"/>
<path d="M196.302 31.2181C196.302 31.1175 196.335 31.042 196.394 30.9833C196.452 30.9246 196.544 30.8911 196.67 30.8911H200.172C200.356 30.8911 200.44 30.9749 200.44 31.1426C200.44 31.2348 200.415 31.3186 200.365 31.3857H196.87V36.5161H196.293V31.2097L196.302 31.2181Z" fill="white"/>
<path fill-rule="evenodd" clip-rule="evenodd" d="M0 24.1766V35.7954H11.5865C14.4037 35.7954 16.6859 33.5068 16.6859 30.6818V19.063H5.0994C2.28219 19.063 0 21.3515 0 24.1766Z" fill="white"/>
<path fill-rule="evenodd" clip-rule="evenodd" d="M11.5781 0H0V11.6104C0 14.4439 2.29055 16.7324 5.10776 16.7324H16.6859V5.12199C16.6859 2.29693 14.4037 0 11.5781 0Z" fill="white"/>
<path fill-rule="evenodd" clip-rule="evenodd" d="M30.3123 18.9121H18.7676V30.489C18.7676 33.3392 21.0748 35.6529 23.9171 35.6529H35.4618V24.076C35.4618 21.2258 33.1546 18.9121 30.3123 18.9121Z" fill="white"/>
<path d="M27.3362 1.25745C31.2485 1.25745 34.4252 4.44297 34.4252 8.3662C34.4252 12.2894 31.2485 15.475 27.3362 15.475C23.4239 15.475 20.2472 12.2894 20.2472 8.3662C20.2472 4.44297 23.4239 1.25745 27.3362 1.25745ZM27.3362 0C22.7216 0 18.9849 3.74719 18.9849 8.3662C18.9849 12.9852 22.7216 16.7324 27.3278 16.7324C31.934 16.7324 35.6708 12.9852 35.6708 8.3662C35.6708 3.74719 31.9424 0 27.3362 0Z" fill="white"/>
</g>
<defs>
<clipPath id="clip0_75_223">
<rect width="201" height="38" fill="white"/>
</clipPath>
</defs>
</svg>
