<svg width="191" height="35" viewBox="0 0 191 35" fill="none" xmlns="http://www.w3.org/2000/svg">
<g clip-path="url(#clip0_5_19)">
<path d="M49.3198 0C50.8704 0 51.5927 0.0577082 52.6907 0.346249C53.7789 0.63479 54.4146 1.12531 55.108 1.6543C55.8014 2.18329 56.3022 2.81808 56.6104 3.56829C56.9283 4.31849 57.0823 5.15526 57.0823 6.08821C57.0823 6.58835 57.0053 7.07887 56.8705 7.55015C56.726 8.02143 56.5045 8.45425 56.1867 8.8582C55.8785 9.26216 55.4836 9.63726 54.9924 9.97389C54.5109 10.3105 53.9234 10.6087 53.2492 10.8588C54.7324 11.2146 55.8303 11.8013 56.543 12.5996C57.2557 13.3979 57.612 14.4463 57.612 15.7159C57.612 16.668 57.4291 17.5625 57.0535 18.3897C56.6875 19.2168 56.1385 19.9286 55.4258 20.5441C54.7131 21.1597 54.0871 21.7175 53.0374 22.0638C51.9876 22.41 51.3905 22.4966 50.0422 22.4966H41.9137V0H49.3391H49.3198ZM46.2572 3.90492V9.46414H48.9731C49.551 9.46414 50.0711 9.42567 50.5333 9.3391C50.9956 9.25254 51.3905 9.10827 51.7179 8.90629C52.0454 8.70432 52.2862 8.41577 52.4595 8.05991C52.6329 7.70404 52.7196 7.25199 52.7196 6.70376C52.7196 6.15554 52.6521 5.72273 52.5173 5.36686C52.3825 5.01099 52.1802 4.72245 51.9009 4.51085C51.6216 4.29926 51.2653 4.14537 50.8415 4.04919C50.4178 3.95301 49.9073 3.91454 49.3198 3.91454H46.2572V3.90492ZM49.9362 18.5532C50.6296 18.5532 51.1882 18.4666 51.6313 18.2935C52.0743 18.1204 52.4114 17.8895 52.6618 17.6106C52.9122 17.3317 53.0759 17.0239 53.1722 16.668C53.2685 16.3122 53.307 15.9659 53.307 15.6004C53.307 15.1869 53.2492 14.8214 53.1433 14.4847C53.0374 14.1577 52.8447 13.8788 52.5847 13.648C52.3247 13.4171 51.978 13.244 51.5446 13.119C51.1112 12.994 50.5622 12.9362 49.9073 12.9362H46.2572V18.5339H49.9362V18.5532Z" fill="#45403E"/>
<path d="M63.6121 22.4869H59.9524V6.8288H63.6121V22.4773V22.4869Z" fill="#45403E"/>
<path d="M80.678 22.4869H77.3554C77.0279 22.4869 76.7583 22.4004 76.5368 22.2273C76.3153 22.0541 76.113 21.8041 75.9204 21.4867L73.32 16.6007C73.1467 16.2833 72.9541 16.0813 72.7422 15.9755C72.5303 15.8794 72.251 15.8217 71.9236 15.8217H70.2863V22.4869H66.6555V6.8288H70.2863V13.1671H71.6154C71.885 13.1671 72.1258 13.119 72.3184 13.0132C72.511 12.917 72.694 12.7343 72.8578 12.465L75.6989 7.75213C75.8626 7.48282 76.0648 7.26161 76.3056 7.08848C76.5464 6.91536 76.8257 6.8288 77.1628 6.8288H80.2832L76.4597 12.9843C76.2767 13.2729 76.0648 13.5037 75.8144 13.6961C75.564 13.8788 75.2847 14.0327 74.9862 14.1577C75.4677 14.2828 75.8722 14.504 76.2093 14.7925C76.5464 15.0907 76.8642 15.5043 77.1531 16.0236L80.6588 22.4773L80.678 22.4869Z" fill="#45403E"/>
<path d="M95.7986 6.8288V22.4773H92.1388V15.8601H85.7728V22.4773H82.1131V6.8288H85.7728V13.3691H92.1388V6.8288H95.7986Z" fill="#45403E"/>
<path d="M112.855 22.4869H110.033C109.715 22.4869 109.465 22.41 109.272 22.2657C109.08 22.1215 108.935 21.9291 108.829 21.6983L107.905 18.9667H101.943L101.019 21.6983C100.941 21.9002 100.797 22.083 100.595 22.2369C100.393 22.4004 100.142 22.4773 99.8339 22.4773H96.9928L103.06 6.8288H106.778L112.845 22.4773L112.855 22.4869ZM107.076 16.5045L105.622 12.2149C105.516 11.9456 105.401 11.6186 105.275 11.2531C105.15 10.8876 105.035 10.4836 104.909 10.0508C104.803 10.4836 104.688 10.8876 104.563 11.2627C104.437 11.6378 104.322 11.9552 104.216 12.2341L102.771 16.4949H107.067L107.076 16.5045Z" fill="#45403E"/>
<path d="M129.574 18.4378C129.661 18.4378 129.747 18.457 129.834 18.4859C129.921 18.5147 129.998 18.5724 130.085 18.6494L131.529 20.1594C130.894 20.9865 130.104 21.6021 129.16 22.0253C128.207 22.4485 127.089 22.6505 125.789 22.6505C124.595 22.6505 123.536 22.4485 122.592 22.0445C121.648 21.6406 120.849 21.0827 120.194 20.371C119.539 19.6593 119.028 18.8129 118.682 17.8318C118.335 16.8508 118.152 15.7928 118.152 14.6483C118.152 13.5037 118.345 12.4073 118.72 11.4262C119.105 10.4452 119.635 9.60841 120.319 8.89668C121.003 8.18494 121.831 7.63672 122.794 7.24238C123.757 6.84804 124.816 6.65568 125.963 6.65568C126.55 6.65568 127.109 6.70377 127.629 6.80957C128.149 6.91536 128.63 7.05964 129.083 7.24238C129.536 7.42512 129.95 7.64633 130.325 7.90602C130.711 8.16571 131.048 8.44463 131.337 8.74279L130.113 10.3875C130.036 10.4837 129.94 10.5798 129.834 10.6568C129.728 10.7433 129.574 10.7818 129.382 10.7818C129.256 10.7818 129.131 10.753 129.016 10.6952C128.9 10.6375 128.775 10.5702 128.65 10.4837C128.524 10.3971 128.38 10.3105 128.226 10.2143C128.072 10.1182 127.889 10.0316 127.677 9.94504C127.465 9.85848 127.215 9.79115 126.935 9.73345C126.656 9.67574 126.319 9.64688 125.943 9.64688C125.337 9.64688 124.788 9.7623 124.296 9.98352C123.805 10.2047 123.372 10.5317 123.006 10.9549C122.64 11.3781 122.361 11.9071 122.168 12.5227C121.966 13.1382 121.869 13.85 121.869 14.6483C121.869 15.4466 121.975 16.1583 122.197 16.7835C122.418 17.4086 122.717 17.928 123.093 18.3608C123.468 18.784 123.911 19.111 124.412 19.3322C124.913 19.5535 125.452 19.6689 126.03 19.6689C126.357 19.6689 126.656 19.6496 126.935 19.6208C127.205 19.5919 127.465 19.5342 127.696 19.4573C127.937 19.3803 128.158 19.2841 128.361 19.1591C128.573 19.0341 128.784 18.8706 128.996 18.6782C129.083 18.6109 129.179 18.5436 129.276 18.5051C129.372 18.457 129.478 18.4378 129.584 18.4378H129.574Z" fill="#45403E"/>
<path d="M144.377 9.71421H139.966V22.4869H136.335V9.71421H131.924V6.83842H144.377V9.71421Z" fill="#45403E"/>
<path d="M159.902 6.8288V22.4773H156.242V13.7153C156.242 13.3113 156.252 12.8785 156.281 12.4169C156.31 11.9552 156.358 11.4743 156.425 10.9645C156.261 11.4262 156.078 11.8494 155.886 12.2341C155.693 12.6285 155.501 12.9651 155.318 13.2633L150.55 21.4001C150.473 21.5251 150.377 21.6598 150.261 21.7848C150.146 21.9099 150.03 22.0349 149.886 22.1311C149.751 22.2369 149.606 22.3234 149.443 22.3811C149.289 22.4485 149.115 22.4773 148.951 22.4773H146.207V6.8288H149.866V15.5812C149.866 15.9852 149.857 16.418 149.838 16.8796C149.818 17.3317 149.77 17.8222 149.683 18.332C149.847 17.8799 150.03 17.4567 150.223 17.072C150.415 16.6777 150.608 16.341 150.791 16.0429L155.558 7.90602C155.635 7.78098 155.732 7.64633 155.847 7.52129C155.963 7.39626 156.078 7.27123 156.223 7.17505C156.367 7.07887 156.502 6.98268 156.666 6.92498C156.82 6.85765 156.993 6.8288 157.157 6.8288H159.902Z" fill="#45403E"/>
<path d="M176.265 22.4869H172.605V9.53146H169.138C169.032 11.4551 168.878 13.1094 168.685 14.504C168.493 15.8986 168.261 17.0816 167.982 18.053C167.712 19.0245 167.404 19.8131 167.058 20.4191C166.711 21.025 166.335 21.4867 165.931 21.8233C165.526 22.1599 165.083 22.3811 164.611 22.4966C164.139 22.612 163.648 22.6697 163.128 22.6697C162.493 22.6697 162.05 22.612 161.78 22.5062C161.51 22.3908 161.385 22.2369 161.385 22.0157V19.8131H162.29C162.444 19.8131 162.618 19.8035 162.781 19.7747C162.955 19.7458 163.128 19.6689 163.311 19.5534C163.494 19.4284 163.668 19.2553 163.841 19.0148C164.014 18.7744 164.188 18.4474 164.351 18.0242C164.515 17.601 164.669 17.072 164.814 16.4468C164.958 15.8217 165.093 15.0522 165.208 14.1577C165.324 13.2633 165.43 12.2053 165.517 11.003C165.603 9.80077 165.661 8.41577 165.7 6.85765H176.255V22.5062L176.265 22.4869Z" fill="#45403E"/>
<path d="M185.038 13.0998C186.117 13.0998 187.042 13.2152 187.793 13.4556C188.554 13.6961 189.16 14.0135 189.642 14.4078C190.114 14.8021 190.461 15.2638 190.673 15.7928C190.884 16.3218 191 16.87 191 17.4567C191 18.2069 190.865 18.8898 190.595 19.515C190.326 20.1401 189.941 20.6691 189.43 21.1019C188.92 21.5444 188.294 21.881 187.562 22.1311C186.83 22.3811 185.982 22.4966 185.048 22.4966H179.308V6.8288H182.939V13.0901H185.048L185.038 13.0998ZM185.038 19.7458C185.52 19.7458 185.915 19.6881 186.223 19.5823C186.531 19.4765 186.772 19.3322 186.945 19.1495C187.119 18.9667 187.244 18.7648 187.302 18.5339C187.369 18.3031 187.398 18.0627 187.398 17.8126C187.398 17.524 187.369 17.2644 187.302 17.0143C187.234 16.7642 187.119 16.5622 186.945 16.3891C186.772 16.216 186.531 16.0813 186.223 15.9852C185.915 15.889 185.52 15.8409 185.038 15.8409H182.929V19.7554H185.038V19.7458Z" fill="#45403E"/>
<path d="M60.1835 5.1745C61.2333 3.82798 63.015 2.01979 65.5864 0.856004C64.161 1.73124 63.8818 2.1352 62.726 3.13548C62.1386 3.64523 61.1755 4.62627 60.3761 5.47266C61.4644 5.40533 65.9813 4.83787 66.6458 0C61.3681 0.461665 60.3665 4.1069 60.1739 5.1745H60.1835Z" fill="#B3CE4E"/>
<path d="M43.3872 28.7771H41.5284C41.3551 28.7771 41.2684 28.7002 41.2684 28.5367C41.2684 28.4501 41.2877 28.3732 41.3358 28.3059H45.9105C46.0839 28.3059 46.1705 28.3828 46.1705 28.5463C46.1705 28.6329 46.1513 28.7098 46.1031 28.7771H43.9265V33.615H43.3872V28.7771Z" fill="#45403E"/>
<path d="M62.1482 28.6136C62.1482 28.4405 62.2541 28.3347 62.4564 28.3059C62.5623 28.2866 62.6875 28.277 62.8416 28.2674C62.9957 28.2578 63.1594 28.2481 63.3328 28.2385C63.5062 28.2385 63.6699 28.2385 63.8143 28.2385C64.6137 28.2385 65.2301 28.3828 65.6538 28.6713C66.0776 28.9599 66.2895 29.3831 66.2895 29.9313C66.2895 30.4795 66.0872 30.922 65.6731 31.2201C65.259 31.5183 64.6619 31.6625 63.8818 31.6625C63.7855 31.6625 63.6506 31.6625 63.4869 31.6433C63.3232 31.6337 63.1594 31.6145 63.0053 31.6048C62.8513 31.5856 62.7357 31.576 62.6683 31.5567V33.615H62.1386V28.6136H62.1482ZM65.2879 30.8931C65.5864 30.6815 65.7405 30.3641 65.7405 29.9313C65.7405 29.1041 65.0856 28.6906 63.7855 28.6906C63.5832 28.6906 63.3713 28.6906 63.1498 28.7098C62.9379 28.7194 62.7742 28.7387 62.6779 28.7483V31.0951C62.7453 31.1143 62.8609 31.1239 63.015 31.1432C63.1691 31.1624 63.3232 31.172 63.4869 31.1913C63.6506 31.2009 63.7951 31.2105 63.9107 31.2105C64.527 31.2105 64.9893 31.1047 65.2879 30.8931Z" fill="#45403E"/>
<path d="M82.5561 28.6136C82.5561 28.4117 82.6716 28.3059 82.9028 28.3059H86.2158C86.3892 28.3059 86.4758 28.3828 86.4758 28.5463C86.4758 28.6329 86.4566 28.7098 86.4084 28.7771H83.1243V30.6238H86.1002C86.2736 30.6238 86.3603 30.7007 86.3603 30.8642C86.3603 30.9508 86.341 31.0278 86.2928 31.0951H83.1339V33.1341H86.4373V33.6054H82.5753V28.604L82.5561 28.6136Z" fill="#45403E"/>
<path d="M107.134 33.6054H106.595V28.9599L103.282 33.6054H102.656V28.5848C102.656 28.3924 102.752 28.2962 102.935 28.2962C103.041 28.2962 103.128 28.3155 103.195 28.3539V32.8744L106.316 28.5367C106.383 28.4501 106.46 28.3828 106.537 28.3443C106.614 28.3059 106.691 28.2866 106.778 28.2866C106.874 28.2866 106.951 28.2866 107.019 28.3059C107.086 28.3251 107.125 28.3347 107.144 28.3539V33.5861L107.134 33.6054ZM104.9 27.4018C105.381 27.4018 105.68 27.1902 105.786 26.767L106.219 26.8151C106.219 27.017 106.152 27.2094 106.036 27.3633C105.921 27.5268 105.757 27.6518 105.564 27.748C105.372 27.8442 105.15 27.8923 104.9 27.8923C104.649 27.8923 104.437 27.8442 104.235 27.748C104.033 27.6518 103.879 27.5268 103.763 27.3633C103.648 27.1998 103.58 27.017 103.571 26.8151L104.004 26.767C104.11 27.1902 104.409 27.4018 104.9 27.4018Z" fill="#45403E"/>
<path d="M127.985 33.1341H128.158C128.39 33.1341 128.505 33.2399 128.505 33.4419V35H127.975V33.6054H123.719V35H123.189V33.4419C123.189 33.2399 123.304 33.1341 123.536 33.1341H123.757L124.47 30.0756C124.624 29.4312 124.874 28.9599 125.231 28.6713C125.587 28.3732 126.088 28.2289 126.733 28.2289C126.887 28.2289 127.041 28.2289 127.215 28.2481C127.388 28.2578 127.532 28.277 127.667 28.3058C127.879 28.3347 127.985 28.4405 127.985 28.6136V33.1341ZM127.089 28.7002C126.964 28.6906 126.839 28.681 126.714 28.681C126.386 28.681 126.117 28.729 125.895 28.8156C125.674 28.9118 125.5 29.0657 125.356 29.2773C125.211 29.4889 125.105 29.787 125.019 30.1525L124.325 33.1341H127.455V28.7483C127.34 28.7194 127.224 28.7002 127.089 28.6906V28.7002Z" fill="#45403E"/>
<path d="M149.086 33.6054H148.547V28.9599L145.234 33.6054H144.608V28.5848C144.608 28.3924 144.704 28.2962 144.887 28.2962C144.993 28.2962 145.08 28.3155 145.147 28.3539V32.8744L148.268 28.5367C148.335 28.4501 148.412 28.3828 148.489 28.3443C148.566 28.3058 148.643 28.2866 148.73 28.2866C148.826 28.2866 148.903 28.2866 148.971 28.3058C149.038 28.3251 149.077 28.3347 149.096 28.3539V33.5861L149.086 33.6054Z" fill="#45403E"/>
<path d="M170.091 33.6054H169.552V31.0758H166.143V33.6054H165.613V28.5848C165.613 28.3924 165.709 28.2962 165.892 28.2962C165.998 28.2962 166.085 28.3155 166.152 28.3539V30.6046H169.562V28.5752C169.562 28.3828 169.658 28.2866 169.841 28.2866C169.947 28.2866 170.034 28.3058 170.101 28.3443V33.5861L170.091 33.6054Z" fill="#45403E"/>
<path d="M186.56 28.6136C186.56 28.5175 186.589 28.4501 186.647 28.3924C186.705 28.3347 186.791 28.3059 186.907 28.3059H190.22C190.393 28.3059 190.48 28.3828 190.48 28.5463C190.48 28.6329 190.461 28.7098 190.413 28.7771H187.109V33.615H186.57V28.6136H186.56Z" fill="#45403E"/>
<path fill-rule="evenodd" clip-rule="evenodd" d="M0 22.7755V33.7208H10.96C13.6277 33.7208 15.785 31.5664 15.785 28.9022V17.9569H4.82508C2.15732 17.9569 0 20.1113 0 22.7755Z" fill="#6C98BF"/>
<path fill-rule="evenodd" clip-rule="evenodd" d="M10.9503 0H0V10.9357C0 13.5999 2.16695 15.7639 4.83471 15.7639H15.785V4.82825C15.785 2.16406 13.6181 0 10.9503 0Z" fill="#6C98BF"/>
<path fill-rule="evenodd" clip-rule="evenodd" d="M28.6712 17.8126H17.7497V28.7194C17.7497 31.4029 19.9263 33.5765 22.6134 33.5765H33.5348V22.6697C33.5348 19.9863 31.3582 17.8126 28.6712 17.8126Z" fill="#6C98BF"/>
<path d="M25.8493 15.7543C30.2056 15.7543 33.737 12.2276 33.737 7.87716C33.737 3.52673 30.2056 0 25.8493 0C21.4931 0 17.9616 3.52673 17.9616 7.87716C17.9616 12.2276 21.4931 15.7543 25.8493 15.7543Z" fill="#B3CE4E"/>
</g>
<defs>
<clipPath id="clip0_5_19">
<rect width="191" height="35" fill="white"/>
</clipPath>
</defs>
</svg>
